# xmcd
#
# Track frame offsets: 
#        150
#        14242
#        31543
#        45153
#        57152
#        68853
#        82693
#        93677
#        105924
#        118402
#        130827
#        146421
#        160175
#        170371
#        181133
#        192210
#        203070
#        215007
#        229865
#        242980
#        253699
#        271363
#
# Disc length: 3831 seconds
#
# Revision: 0
# Processed by: cddbd v1.5.2PL0 Copyright (c) Steve Scherf et al.
# Submitted via: ExactAudioCopy v1.1
#
DISCID=2e0ef516
DTITLE=Various Artist - All-Time CountryFavourites - Love Songs - Dis
DTITLE=c 1
DYEAR=2010
DGENRE=Country
TTITLE0=Dolly Parton - I will always love you
TTITLE1=Ray Price - You're the best thing that ever happened to me
TTITLE2=Glen Campbell - Honey come back
TTITLE3=Tammy Wynette - He loves me all the way
TTITLE4=Marty Robbins - Among my souvenirs
TTITLE5=Charley Pride - All I have to offer you ( is me )
TTITLE6=Conway Twitty and Loretta Lynn - Lead me on
TTITLE7=Johnny Cash - Understand your man
TTITLE8=Jim Reeves - I love you because
TTITLE9=Hank Williams - Lovesick blues
TTITLE10=Ernest Tubb - It's been so long darling
TTITLE11=Lefty Frizzell - I want to be with you always
TTITLE12=Patsy Cline - Three cigarettes in an ash tray
TTITLE13=Webb Pierce - More and more
TTITLE14=Hank Snow - Let me go lover
TTITLE15=Eddy Arnold - Take me in your arms and hold me
TTITLE16=Brenda Lee - I'm sorry
TTITLE17=Jerry Wallace - Don't give up on me
TTITLE18=Ray Stevens - Misty
TTITLE19=Don Williams - ( Turn out the lights and ) love me tonight
TTITLE20=Kenny Rogers - Lady
TTITLE21=Willie Nelson - Always on my mind
EXTD=
EXTT0=
EXTT1=
EXTT2=
EXTT3=
EXTT4=
EXTT5=
EXTT6=
EXTT7=
EXTT8=
EXTT9=
EXTT10=
EXTT11=
EXTT12=
EXTT13=
EXTT14=
EXTT15=
EXTT16=
EXTT17=
EXTT18=
EXTT19=
EXTT20=
EXTT21=
PLAYORDER=
